<?xml version="1.0" encoding="UTF-8" standalone="no" ?>
<!DOCTYPE svg PUBLIC "-//W3C//DTD SVG 1.1//EN" "http://www.w3.org/Graphics/SVG/1.1/DTD/svg11.dtd">
<svg xmlns="http://www.w3.org/2000/svg" xmlns:xlink="http://www.w3.org/1999/xlink" version="1.1" width="826" height="979" viewBox="0 0 826 979" xml:space="preserve">
<desc>Created with Fabric.js 5.3.0</desc>
<defs>
</defs>
<g transform="matrix(1 0 0 1 413 489.5)" id="MB3J-pJSrZQlkZQNHxdJx"  >
<path style="stroke: rgb(0,0,0); stroke-width: 1; stroke-dasharray: none; stroke-linecap: butt; stroke-dashoffset: 0; stroke-linejoin: miter; stroke-miterlimit: 4; fill: rgb(0,0,0); fill-rule: nonzero; opacity: 1;"  transform=" translate(0, 0)" d="M 90.5 148.25 L 412 -488.75 L -398 -488.75 L -412 488.75 L 163.5 488.75 z" stroke-linecap="round" />
</g>
<g transform="matrix(1 0 0 1 820.7893915757 0)" id="uCcV4iGLGfaI_ablPahm6"  >
<path style="stroke: rgb(0,0,0); stroke-width: 1; stroke-dasharray: none; stroke-linecap: round; stroke-dashoffset: 0; stroke-linejoin: round; stroke-miterlimit: 10; fill: none; fill-rule: nonzero; opacity: 1;"  transform=" translate(-820.7893915757, 0)" d="M 820.7883915756631 0 L 820.7903915756631 0" stroke-linecap="round" />
</g>
<g transform="matrix(1 0 0 1 410.8951957878 489.118174727)" id="z1tIMzQUo_t5rOYKfFU7Z"  >
<path style="stroke: rgb(0,0,0); stroke-width: 1; stroke-dasharray: none; stroke-linecap: butt; stroke-dashoffset: 0; stroke-linejoin: miter; stroke-miterlimit: 4; fill: rgb(0,0,0); fill-rule: nonzero; opacity: 1;"  transform=" translate(0, 0)" d="M 410.3952 -489.11817 L 321.42976 -237.41212000000002 L 321.42976 -237.41212000000002 C 273.88512 -102.89614 202.46099999999998 21.938259999999957 110.58946999999998 131.09256 L 95.27017999999998 149.29369 L 167.05333 489.11818000000005 L -410.39519000000007 489.11818000000005 L -410.1315400000001 -489.11816999999996 L -382.7750700000001 -488.35452 z" stroke-linecap="round" />
</g>
</svg>